<?xml version="1.0" encoding="UTF-8" standalone="no"?>
<!DOCTYPE svg PUBLIC "-//W3C//DTD SVG 1.1//EN" "http://www.w3.org/Graphics/SVG/1.1/DTD/svg11.dtd">
<svg width="100%" height="100%" viewBox="0 0 128 128" version="1.1" xmlns="http://www.w3.org/2000/svg" xmlns:xlink="http://www.w3.org/1999/xlink" xml:space="preserve" xmlns:serif="http://www.serif.com/" style="fill-rule:evenodd;clip-rule:evenodd;stroke-linejoin:round;stroke-miterlimit:2;">
    <g transform="matrix(1,0,0,1,-308.775,-406.406)">
        <g id="DocIcon" transform="matrix(1,0,0,1,308.775,406.406)">
            <rect x="0" y="0" width="128" height="128" style="fill:none;"/>
            <g id="CakeSliceSingleMinimal" transform="matrix(0.474169,0,0,0.474169,35.7542,43.1603)">
                <g transform="matrix(1,0,0,1,-970.433,-92.5579)">
                    <path d="M1064.27,32.026L948.926,68.503L1112.09,139.978L1064.27,32.026" style="fill:white;"/>
                </g>
                <g transform="matrix(1,0,0,1,-970.433,-79.9388)">
                    <path d="M1112.09,139.978L1112.09,176.948L947.919,102.371L948.926,68.503L1112.09,139.978Z" style="fill:white;"/>
                </g>
                <g transform="matrix(1,0,0,1,-970.433,-28.5163)">
                    <path d="M1112.09,139.978L1112.09,176.948L947.919,102.371L948.926,68.503L1112.09,139.978Z" style="fill:white;"/>
                </g>
            </g>
        </g>
    </g>
</svg>
